<svg xmlns="http://www.w3.org/2000/svg" viewBox="0 0 100 100" width="100" height="100">
  <defs>
    <linearGradient id="mainGradient" x1="0%" y1="0%" x2="100%" y2="100%">
      <stop offset="0%" style="stop-color:#1e3c72;stop-opacity:1" />
      <stop offset="100%" style="stop-color:#2a5298;stop-opacity:1" />
    </linearGradient>
  </defs>
  
  <!-- Background circle -->
  <circle cx="50" cy="50" r="48" fill="url(#mainGradient)"/>
  
  <!-- Simple car silhouette -->
  <path d="M20 55 L25 45 L35 45 L40 40 L60 40 L65 45 L75 45 L80 55 L80 60 L75 60 L75 65 L70 65 L70 60 L30 60 L30 65 L25 65 L25 60 L20 60 Z" fill="white"/>
  
  <!-- Car wheels -->
  <circle cx="30" cy="60" r="4" fill="#333"/>
  <circle cx="70" cy="60" r="4" fill="#333"/>
  
  <!-- Simple checkmark -->
  <circle cx="50" cy="25" r="10" fill="white"/>
  <path d="M45 25 L48 28 L55 21" stroke="#1e3c72" stroke-width="2" fill="none" stroke-linecap="round" stroke-linejoin="round"/>
  
  <!-- Text -->
  <text x="50" y="82" text-anchor="middle" font-family="Arial, sans-serif" font-size="10" font-weight="bold" fill="white">SKP</text>
</svg>
